<svg xmlns="http://www.w3.org/2000/svg" width="1300" height="1000" viewBox="0 0 1300 1000">
  <defs>
    <marker id="arrowBlue" markerWidth="10" markerHeight="10" refX="9" refY="3" orient="auto"><path d="M0,0 L0,6 L9,3 z" fill="#1f77b4"/></marker>
    <marker id="arrowGreen" markerWidth="10" markerHeight="10" refX="9" refY="3" orient="auto"><path d="M0,0 L0,6 L9,3 z" fill="#2ca02c"/></marker>
    <marker id="arrowYellow" markerWidth="10" markerHeight="10" refX="9" refY="3" orient="auto"><path d="M0,0 L0,6 L9,3 z" fill="#f1a208"/></marker>
    <marker id="arrowPurple" markerWidth="10" markerHeight="10" refX="9" refY="3" orient="auto"><path d="M0,0 L0,6 L9,3 z" fill="#674ea7"/></marker>
    <marker id="arrowGray" markerWidth="10" markerHeight="10" refX="9" refY="3" orient="auto"><path d="M0,0 L0,6 L9,3 z" fill="#555"/></marker>
    <style>
      text{font-family:Inter,Arial,sans-serif;fill:#1f2937} .title{font-weight:700;font-size:24px}.subtitle{font-size:14px}.boxTitle{font-weight:700;font-size:14px}.small{font-size:12px}.tiny{font-size:11px}.caption{font-size:12px;fill:#4b5563}.bold{font-weight:700}
      .dash{stroke-dasharray:8 6}
    </style>
  </defs>
  <rect width="1300" height="1000" fill="#ffffff"/>
  <text x="650" y="38" text-anchor="middle" class="title">Enterprise SD-WAN &amp; Secure Remote Access</text>
  <text x="650" y="62" text-anchor="middle" class="subtitle">FortiGate VM on AWS with Dual WAN, SSL-VPN and Site-to-Site IPsec</text>

  <ellipse cx="175" cy="155" rx="85" ry="45" fill="#fff" stroke="#666" stroke-width="2"/>
  <text x="175" y="153" text-anchor="middle" class="boxTitle">Internet</text><text x="175" y="173" text-anchor="middle" class="tiny">Public Network</text>

  <rect x="320" y="105" width="610" height="530" rx="10" fill="#f8fbff" stroke="#2f5597" stroke-width="2"/>
  <text x="625" y="130" text-anchor="middle" class="boxTitle">AWS VPC 10.10.0.0/16</text>

  <rect x="355" y="190" width="180" height="135" rx="8" fill="#eaf3ff" stroke="#4f81bd" stroke-width="2"/>
  <text x="445" y="215" text-anchor="middle" class="boxTitle">WAN1 Subnet</text><text x="445" y="238" text-anchor="middle" class="bold small">10.10.16.0/24</text><text x="445" y="262" text-anchor="middle" class="small">FortiGate port1</text><text x="445" y="282" text-anchor="middle" class="small">10.10.16.10/24</text>
  <rect x="715" y="190" width="180" height="135" rx="8" fill="#eaf7ea" stroke="#6aa84f" stroke-width="2"/>
  <text x="805" y="215" text-anchor="middle" class="boxTitle">WAN2 Subnet</text><text x="805" y="238" text-anchor="middle" class="bold small">10.10.17.0/24</text><text x="805" y="262" text-anchor="middle" class="small">FortiGate port2</text><text x="805" y="282" text-anchor="middle" class="small">10.10.17.10/24</text>
  <rect x="520" y="445" width="260" height="145" rx="8" fill="#fff4db" stroke="#f1a208" stroke-width="2"/>
  <text x="650" y="470" text-anchor="middle" class="boxTitle">LAN Subnet</text><text x="650" y="493" text-anchor="middle" class="bold small">10.10.18.0/24</text><text x="650" y="517" text-anchor="middle" class="small">Protected internal network</text><text x="650" y="537" text-anchor="middle" class="small">Gateway: port3 10.10.18.10</text>

  <rect x="520" y="325" width="260" height="95" rx="8" fill="#fff2f2" stroke="#d71920" stroke-width="3"/>
  <text x="650" y="350" text-anchor="middle" class="boxTitle">FortiGate VM</text><text x="650" y="371" text-anchor="middle" class="small">NGFW / Router / VPN Gateway</text><text x="650" y="392" text-anchor="middle" class="small bold">port1 + port2 → virtual-wan-link</text><text x="650" y="410" text-anchor="middle" class="small">port3 → LAN</text>
  <g fill="#d71920"><rect x="542" y="345" width="10" height="10"/><rect x="558" y="345" width="10" height="10"/><rect x="574" y="345" width="10" height="10"/><rect x="542" y="361" width="10" height="10"/><rect x="574" y="361" width="10" height="10"/><rect x="542" y="377" width="10" height="10"/><rect x="558" y="377" width="10" height="10"/><rect x="574" y="377" width="10" height="10"/></g>

  <rect x="585" y="505" width="130" height="55" rx="8" fill="#fff" stroke="#999" stroke-width="1.5"/>
  <text x="650" y="526" text-anchor="middle" class="small bold">LAN Client / EC2</text><text x="650" y="546" text-anchor="middle" class="small">10.10.18.44</text>

  <rect x="970" y="120" width="280" height="120" rx="8" fill="#f7f2ff" stroke="#8e7cc3" stroke-width="2"/>
  <text x="1110" y="145" text-anchor="middle" class="boxTitle">Public Domain + Certificate</text><text x="1110" y="168" text-anchor="middle" class="small bold">vpn.nguyenchithanhit.id.vn</text><text x="1110" y="190" text-anchor="middle" class="small">SSL-VPN :443 / GUI :8443</text><text x="1110" y="212" text-anchor="middle" class="small">ZeroSSL Certificate</text>

  <rect x="975" y="280" width="280" height="280" rx="10" fill="#f4fff4" stroke="#6aa84f" stroke-width="2"/>
  <text x="1115" y="310" text-anchor="middle" class="boxTitle">Remote Workforce Access</text>
  <rect x="1010" y="345" width="210" height="55" rx="6" fill="#fff" stroke="#6aa84f" stroke-width="1.5"/><text x="1115" y="368" text-anchor="middle" class="small bold">FortiClient - Windows</text><text x="1115" y="388" text-anchor="middle" class="small">Tunnel IP: 10.212.134.x</text>
  <rect x="1010" y="420" width="210" height="55" rx="6" fill="#fff" stroke="#6aa84f" stroke-width="1.5"/><text x="1115" y="443" text-anchor="middle" class="small bold">FortiClient - iPhone</text><text x="1115" y="463" text-anchor="middle" class="small">Tunnel IP: 10.212.134.x</text>
  <rect x="1010" y="495" width="210" height="45" rx="6" fill="#fff" stroke="#999" stroke-width="1.5"/><text x="1115" y="513" text-anchor="middle" class="small bold">SSL-VPN Pool</text><text x="1115" y="532" text-anchor="middle" class="small">10.212.134.x</text>

  <rect x="55" y="330" width="210" height="120" rx="8" fill="#fbf3ff" stroke="#674ea7" stroke-width="2"/>
  <text x="160" y="360" text-anchor="middle" class="boxTitle">Remote Site</text><text x="160" y="384" text-anchor="middle" class="small bold">strongSwan VPS</text><text x="160" y="407" text-anchor="middle" class="small">Site-to-Site IPsec</text><text x="160" y="428" text-anchor="middle" class="small">Selector: 10.0.0.80/32</text>

  <rect x="380" y="645" width="455" height="105" rx="8" fill="#eef7ff" stroke="#3c78d8" stroke-width="2" stroke-dasharray="8 6"/>
  <text x="607" y="670" text-anchor="middle" class="boxTitle">SD-WAN Logic</text><text x="607" y="693" text-anchor="middle" class="small">Zone: <tspan class="bold">virtual-wan-link</tspan> • Members: port1, port2</text><text x="607" y="716" text-anchor="middle" class="small">Performance SLA: 8.8.8.8 / 1.1.1.1</text><text x="607" y="738" text-anchor="middle" class="small">Failover: WAN1 → WAN2</text>

  <rect x="55" y="510" width="210" height="170" rx="8" fill="#fff" stroke="#d71920" stroke-width="2"/>
  <text x="75" y="535" class="boxTitle">Key Security Policies</text><text x="75" y="562" class="small">• LAN_to_Internet: NAT via SD-WAN</text><text x="75" y="586" class="small">• SSLVPN_to_LAN: no NAT</text><text x="75" y="610" class="small">• SSLVPN_to_Internet: NAT</text><text x="75" y="634" class="small">• UTM: Web Filter / App Control</text><text x="75" y="658" class="small">• Logs: Forward Traffic / Security Events</text>

  <rect x="320" y="780" width="610" height="85" rx="8" fill="#f7fbff" stroke="#4f81bd" stroke-width="2"/>
  <text x="625" y="807" text-anchor="middle" class="boxTitle">Operational Validation</text><text x="625" y="835" text-anchor="middle" class="small">DNS → ZeroSSL → SD-WAN SLA → Routing → NAT/session logs → SSL-VPN session → IPsec status → Employee test</text>
  <rect x="320" y="890" width="610" height="70" rx="8" fill="#fffaf0" stroke="#f1a208" stroke-width="2"/>
  <text x="625" y="918" text-anchor="middle" class="boxTitle">Future Enterprise Roadmap</text><text x="625" y="945" text-anchor="middle" class="small">AD/LDAP • AD group mapping • Split tunnel by group • Azure ↔ Forti IPsec</text>

  <rect x="990" y="650" width="245" height="150" rx="8" fill="#fff" stroke="#b7b7b7"/>
  <text x="1010" y="675" class="boxTitle">Legend</text><line x1="1010" y1="700" x2="1070" y2="700" stroke="#1f77b4" stroke-width="4"/><text x="1085" y="705" class="tiny">Primary WAN</text><line x1="1010" y1="720" x2="1070" y2="720" stroke="#2ca02c" stroke-width="4"/><text x="1085" y="725" class="tiny">Backup WAN</text><line x1="1010" y1="740" x2="1070" y2="740" stroke="#f1a208" stroke-width="4"/><text x="1085" y="745" class="tiny">LAN/Internal</text><line x1="1010" y1="760" x2="1070" y2="760" stroke="#6aa84f" stroke-width="4" stroke-dasharray="8 6"/><text x="1085" y="765" class="tiny">SSL-VPN</text><line x1="1010" y1="780" x2="1070" y2="780" stroke="#674ea7" stroke-width="4" stroke-dasharray="8 6"/><text x="1085" y="785" class="tiny">IPsec VPN</text>

  <polyline points="260,155 340,155 340,258 355,258" fill="none" stroke="#1f77b4" stroke-width="3" marker-end="url(#arrowBlue)"/><text x="328" y="145" class="tiny" fill="#1f77b4">Primary WAN</text>
  <polyline points="260,155 700,155 700,258 715,258" fill="none" stroke="#2ca02c" stroke-width="3" marker-end="url(#arrowGreen)"/><text x="690" y="145" class="tiny" fill="#2ca02c">Backup WAN</text>
  <line x1="445" y1="325" x2="555" y2="325" stroke="#1f77b4" stroke-width="3" marker-end="url(#arrowBlue)"/><text x="488" y="315" class="tiny">port1</text>
  <line x1="805" y1="325" x2="745" y2="325" stroke="#2ca02c" stroke-width="3" marker-end="url(#arrowGreen)"/><text x="775" y="315" class="tiny">port2</text>
  <line x1="650" y1="420" x2="650" y2="445" stroke="#f1a208" stroke-width="3" marker-end="url(#arrowYellow)"/><text x="662" y="438" class="tiny">port3</text>
  <line x1="650" y1="560" x2="650" y2="590" stroke="#f1a208" stroke-width="3" marker-end="url(#arrowYellow)"/>
  <polyline points="970,410 810,410 780,390" fill="none" stroke="#6aa84f" stroke-width="3" stroke-dasharray="8 6" marker-end="url(#arrowGreen)"/><text x="855" y="397" class="tiny" fill="#2ca02c">SSL-VPN tunnel :443</text>
  <polyline points="970,240 880,260 780,365" fill="none" stroke="#6aa84f" stroke-width="3" stroke-dasharray="8 6" marker-end="url(#arrowGreen)"/><text x="850" y="250" class="tiny" fill="#2ca02c">Domain / HTTPS</text>
  <line x1="265" y1="390" x2="520" y2="390" stroke="#674ea7" stroke-width="3" stroke-dasharray="8 6" marker-end="url(#arrowPurple)"/><text x="350" y="378" class="tiny" fill="#674ea7">IPsec S2S VPN</text>
  <line x1="650" y1="420" x2="608" y2="645" stroke="#3c78d8" stroke-width="3" stroke-dasharray="8 6" marker-end="url(#arrowGray)"/>
  <polyline points="520,370 265,595" fill="none" stroke="#d71920" stroke-width="2" stroke-dasharray="8 6" marker-end="url(#arrowGray)"/>
  <line x1="650" y1="420" x2="650" y2="780" stroke="#4f81bd" stroke-width="2" stroke-dasharray="8 6" marker-end="url(#arrowGray)"/>
</svg>